<svg id="Layer_1" data-name="Layer 1" xmlns="http://www.w3.org/2000/svg" viewBox="0 0 421.33333 778.13916"><defs><style>.cls-1{fill:#147e46;}</style></defs><title>grow-logo</title><path class="cls-1" d="M96.76436,466.267a33.74657,33.74657,0,1,1,20.5166-60.5126,5.5174,5.5174,0,0,1,2.1699,3.7265,5.39511,5.39511,0,0,1-1.1319,4.1026,5.622,5.622,0,0,1-7.83,1.038,22.56919,22.56919,0,1,0,1.4624,34.5723c.0625-.0615.1728-.1562.3305-.2822l.0474-12.3584H93.88686a5.569,5.569,0,0,1-3.9619-9.5264,5.29972,5.29972,0,0,1,3.9619-1.6514h24.0542a5.63843,5.63843,0,0,1,5.6133,5.6124l-.1416,29.9033a5.63721,5.63721,0,0,1-5.5654,5.5654H117.8a5.37286,5.37286,0,0,1-3.3955-1.1787,5.30243,5.30243,0,0,1-1.9341-2.877A33.45385,33.45385,0,0,1,96.76436,466.267Z"/><path class="cls-1" d="M186.52016,418.395a18.07991,18.07991,0,0,1-3.8677,11.2724,20.2429,20.2429,0,0,1-9.81,7.1211l10.7065,21.6973a5.62,5.62,0,0,1-2.54729,7.4043,5.61106,5.61106,0,0,1-2.45271.5664,5.128,5.128,0,0,1-4.9526-3.1123l-12.4985-25.3281h-9.5748v22.498a5.55543,5.55543,0,0,1-5.56539,5.5176,5.47528,5.47528,0,0,1-5.51851-5.5176v-56.2217a5.5556,5.5556,0,0,1,5.51851-5.5654h19.52639a20.92729,20.92729,0,0,1,14.8574,5.7534A18.32857,18.32857,0,0,1,186.52016,418.395Zm-20.6582,8.5361a10.62016,10.62016,0,0,0,6.791-2.5937,7.76358,7.76358,0,0,0-.1411-12.0264,10.45321,10.45321,0,0,0-7.0278-2.501h-13.961v17.1211Z"/><path class="cls-1" d="M232.22326,466.45646a33.897,33.897,0,1,1,23.961-9.9521A32.5026,32.5026,0,0,1,232.22326,466.45646Zm0-56.5986a22.706,22.706,0,1,0,16.084,6.6504A21.8518,21.8518,0,0,0,232.22326,409.85786Z"/><path class="cls-1" d="M364.99575,399.15076a5.48628,5.48628,0,0,1,3.1602,2.878,5.38736,5.38736,0,0,1,.2353,4.2451l-19.8564,56.457v.0469a4.21733,4.21733,0,0,1-.28319.707c-.06251.0635-.09381.1113-.09381.1416a4.15448,4.15448,0,0,1-.4258.6133c.0635-.0947.0323-.0469-.0927.1406a5.334,5.334,0,0,1-.4248.4717c-.0948.0947-.126.127-.0948.0947q-.28275.2373-.5664.4717c.03131-.0303-.0156,0-.1416.0947a5.11454,5.11454,0,0,1-.5644.3301c-.0948.0322-.126.0469-.0948.0469q-.33105.142-.6132.2363c-.126.0635-.1426.0791-.0479.0479a3.4557,3.4557,0,0,1-.6592.1406c-.2529.0635-.331.0791-.2363.0469a4.29081,4.29081,0,0,1-1.793,0c.0948.0322.0166.0166-.23629-.0469a2.54343,2.54343,0,0,1-.61231-.1406c.0625.0312.0312.0156-.09469-.0479a4.21908,4.21908,0,0,1-.56551-.2363l-.14249-.0469a5.11581,5.11581,0,0,1-.56451-.3301.0425.0425,0,0,0-.0478-.0468l-.0469-.0479a4.29217,4.29217,0,0,1-.5664-.4717c0,.0323-.0469,0-.1416-.0947a3.34618,3.34618,0,0,1-.42479-.5176l-.09281-.0947q-.1905-.28275-.3789-.6133a.6004.6004,0,0,0-.0928-.1416q-.189-.3765-.331-.707v-.0469l-14.5743-41.5058-14.57419,41.5058v.0469c-.09371.2207-.20511.456-.33011.707a.51765.51765,0,0,1-.0947.1416q-.189.331-.3769.6133c.0625-.0947.0302-.0469-.0948.1406-.1572.1592-.3144.3155-.4707.4717-.0947.0947-.1269.127-.0947.0947a4.42668,4.42668,0,0,1-.5664.4717c.0625-.0303.0166,0-.1416.0947a4.96738,4.96738,0,0,1-.5664.3301c-.0928.0322-.126.0469-.0928.0469-.2207.0947-.4101.1738-.5664.2363-.1582.0635-.1894.0791-.0947.0479a3.47907,3.47907,0,0,1-.6611.1406c-.2188.0635-.2989.0791-.2354.0469a3.809,3.809,0,0,1-.8486.0947,4.01884,4.01884,0,0,1-.8955-.0947c.0927.0322.0146.0166-.2364-.0469a3.46765,3.46765,0,0,1-.6601-.1406c.0937.0312.0781.0156-.0469-.0479q-.2841-.09375-.6133-.2363c.0303,0,0-.0147-.0947-.0469a5.22142,5.22142,0,0,1-.5664-.3301.13944.13944,0,0,0-.0938-.0468.04253.04253,0,0,0-.0468-.0479c-.1895-.1562-.377-.3135-.5664-.4717.0302.0323,0,0-.0948-.0947q-.2358-.2343-.47159-.5176l-.04691-.0947a4.149,4.149,0,0,1-.4248-.6133.54389.54389,0,0,0-.0948-.1416,4.05224,4.05224,0,0,1-.2822-.707l-.0469-.0469-19.8105-56.457a5.39179,5.39179,0,0,1,.2363-4.2451,5.48334,5.48334,0,0,1,3.1602-2.878,5.39835,5.39835,0,0,1,4.2451.2359,5.66681,5.66681,0,0,1,2.877,3.207l14.5742,41.5064,14.5732-41.5064v-.0469a1.37962,1.37962,0,0,0,.0947-.2822c.0948-.1894.125-.2676.0948-.2358.0302,0,.0781-.063.14161-.1895a5.04316,5.04316,0,0,1,.94329-1.3203,5.8688,5.8688,0,0,1,1.4151-1.0381c.125-.063.1728-.0942.14061-.0942l.23629-.0938a1.30639,1.30639,0,0,1,.2832-.0942c-.0312,0-.0156-.0151.0469-.0479-.0313.0328.0322.0161.1895-.0468a1.42162,1.42162,0,0,0,.2822-.0948,1.27615,1.27615,0,0,0,.2832-.0464.77335.77335,0,0,1,.2353-.0478,1.9314,1.9314,0,0,0,.3301-.0469h.7559a1.4157,1.4157,0,0,1,.3291.0469h.23631a1.98525,1.98525,0,0,1,.33009.0478l.1894.0464a3.06944,3.06944,0,0,0,.377.0948.04082.04082,0,0,0,.0469.0468h.0937v.0479h.04791c.06249.0312.15719.0781.28319.1411l.2353.0469.18951.1421a5.248,5.248,0,0,1,1.36719.9902,5.37046,5.37046,0,0,1,.9433,1.2739l.0947.2359.09481.188c.06149.1577.10929.267.14059.33v.0469l14.5742,41.5064,14.57421-41.5064a5.48054,5.48054,0,0,1,2.83009-3.207q2.0757-.98955,2.0752-.9903S363.51725,398.64886,364.99575,399.15076Z"/><path class="cls-1" d="M101.57486,544.477a19.95733,19.95733,0,0,1-6.7446,14.292,21.91192,21.91192,0,0,1-15.2813,5.8477,28.39088,28.39088,0,0,1-13.7724-3.3018,17.88782,17.88782,0,0,1-9.292-11.5078,5.449,5.449,0,0,1,.5659-4.1983,5.351,5.351,0,0,1,3.396-2.5468,5.448,5.448,0,0,1,4.1977.5664,5.35372,5.35372,0,0,1,2.5469,3.3955q.84885,3.1611,4.62261,4.9521a18.3595,18.3595,0,0,0,7.73529,1.5567,11.10234,11.10234,0,0,0,7.5933-2.7823,9.1776,9.1776,0,0,0,3.396-6.7929,5.85,5.85,0,0,0-1.7451-4.3858q-2.9253-3.1128-9.8106-3.207h-.2358q-11.55614-.1875-17.687-6.6504a16.50431,16.50431,0,0,1-4.7168-12.498,20.00385,20.00385,0,0,1,6.7446-14.3399,21.80482,21.80482,0,0,1,15.2822-5.8476,28.40622,28.40622,0,0,1,13.772,3.3017,17.88641,17.88641,0,0,1,9.2915,11.5078,5.33129,5.33129,0,0,1-.6128,4.1983,5.19092,5.19092,0,0,1-3.3491,2.5469,5.44838,5.44838,0,0,1-4.1978-.5665,5.35276,5.35276,0,0,1-2.5468-3.3955q-.849-3.1596-4.669-4.9521a18.04562,18.04562,0,0,0-7.688-1.5566,11.27415,11.27415,0,0,0-7.6416,2.7822,9.33974,9.33974,0,0,0-3.3481,6.791,5.99659,5.99659,0,0,0,1.74461,4.4346q2.92454,3.06585,9.81059,3.1601h.2358q11.55615.189,17.6875,6.6973A16.42449,16.42449,0,0,1,101.57486,544.477Z"/><path class="cls-1" d="M116.385,564.19186a5.46433,5.46433,0,0,1-3.0186-3.0186,5.52165,5.52165,0,0,1,0-4.2441l5.9907-14.3858v-.0478l17.3565-41.8828a3.32016,3.32016,0,0,1,.2358-.4717l.09431-.2364a2.70016,2.70016,0,0,1,.18889-.2353.70982.70982,0,0,1,.14111-.2363c.09479-.0938.15729-.1563.189-.1875,0-.0313.04689-.0948.14159-.1895.125-.125.1885-.2041.1885-.2353a1.54169,1.54169,0,0,1,.1885-.1416c.125-.125.2045-.1895.2358-.1895-.0313,0,.0312-.0459.189-.1406a2.89375,2.89375,0,0,0,.2358-.1885l.1885-.1426a1.05907,1.05907,0,0,1,.2832-.1406c.0625-.0303.1719-.0781.33011-.1416.15719-.0947.20409-.125.14159-.0947l.18841-.0948a1.44427,1.44427,0,0,0,.33009-.0927,2.04269,2.04269,0,0,0,.3301-.0948l.189-.0478a2.00487,2.00487,0,0,0,.33-.0469l.2359-.0469h1.0844l.2832.0469.2359.0469a1.09685,1.09685,0,0,1,.3301.0947c.1889.0313.2514.0479.1889.0479a3.75341,3.75341,0,0,1,1.0376.4238c-.0317-.0303.03081,0,.1885.0947a1.959,1.959,0,0,1,.2827.1885l.189.1416c.125.0947.2041.1572.2358.1875.0313,0,.0943.0479.189.1426a.96462.96462,0,0,0,.23581.1885c0,.0312.04689.0947.14109.1884.1255.127.1885.2051.1885.2364l.1421.1875c.1245.1269.1885.206.1885.2363a.69043.69043,0,0,0,.1411.2353.70274.70274,0,0,1,.1421.2364,3.53461,3.53461,0,0,1,.2358.4717l17.3565,41.8828v.0478l5.9902,14.3858a5.57017,5.57017,0,0,1-5.1411,7.6875,5.13336,5.13336,0,0,1-5.1406-3.4434l-4.5284-10.9424H128.177l-4.5284,10.9424a5.13439,5.13439,0,0,1-5.1411,3.4434H117.423S117.07636,564.47506,116.385,564.19186Zm34.5258-25.044-9.1035-21.8857-9.05559,21.8857Z"/><path class="cls-1" d="M229.01826,562.49456h-.0489v-.0469l-33.9116-43.6289v40.2324a5.56605,5.56605,0,0,1-11.1318,0v-56.5039a5.28784,5.28784,0,0,1,1.0381-3.208,5.351,5.351,0,0,1,2.7353-2.0283,5.24243,5.24243,0,0,1,3.3965-.0938,5.42442,5.42442,0,0,1,2.7827,1.9336l33.91111,43.6758v-40.2793a5.32756,5.32756,0,0,1,1.60359-3.915,5.40282,5.40282,0,0,1,3.9629-1.6504,5.63456,5.63456,0,0,1,5.5644,5.5654V559.146a1.3338,1.3338,0,0,1-.04589.2822v.2363a1.39067,1.39067,0,0,1-.04781.2832.6243.6243,0,0,1-.0479.2822l-.0449.2364a.71476.71476,0,0,1-.0957.2822.78411.78411,0,0,1-.0938.2363,1.42928,1.42928,0,0,1-.0957.2832l-.0937.2364-.1406.2353c-.0333.0635-.0782.1582-.1416.2832l-.1417.1406a2.27809,2.27809,0,0,1-.1884.2842l-.1416.1875c-.0323.0322-.0957.0947-.1895.1895-.0928.1259-.1562.1884-.1885.1884,0,.0323-.0634.0938-.1894.1885a1.02923,1.02923,0,0,1-.2344.1895c.0928-.0635.0781-.0479-.04779.0468l-.04591.0459a6.75687,6.75687,0,0,1-.709.4727h-.0479a7.86785,7.86785,0,0,1-.7539.3301c-.126.0644-.1562.0791-.0937.0478a3.34391,3.34391,0,0,1-.8018.1875l-.1416.0479a7.07641,7.07641,0,0,1-.8017.0469,4.2305,4.2305,0,0,1-.6133-.0469c.0634.0322.0312.0322-.0957,0-.1866-.0313-.3457-.0625-.4707-.0947.03221.0322-.0313.0166-.1875-.0479a3.00657,3.00657,0,0,1-.378-.0928.50065.50065,0,0,1-.1894-.0947,1.03173,1.03173,0,0,1-.376-.1416.273.273,0,0,1-.1894-.0947,2.5798,2.5798,0,0,0-.3301-.1406,1.42356,1.42356,0,0,1-.1895-.1426c-.0928-.0616-.2041-.1416-.3301-.2364a1.50214,1.50214,0,0,1-.1894-.1406,5.30478,5.30478,0,0,1-.4238-.3769l-.0469-.0469v-.0479c-.125-.125-.1875-.1884-.1875-.1884S229.111,562.62056,229.01826,562.49456Z"/><path class="cls-1" d="M261.79656,496.98186a5.63632,5.63632,0,0,1,5.5654,5.5654v50.9385h24.9512a5.40557,5.40557,0,0,1,3.9619,1.6504,5.58118,5.58118,0,0,1,0,7.8301,5.40557,5.40557,0,0,1-3.9619,1.6504h-30.5166a5.63792,5.63792,0,0,1-5.5654-5.5655v-56.5039a5.63793,5.63793,0,0,1,5.5654-5.5654Z"/><path class="cls-1" d="M339.71455,564.61666a33.89718,33.89718,0,1,1,23.9599-9.9522A32.50278,32.50278,0,0,1,339.71455,564.61666Zm0-56.5987a22.70594,22.70594,0,1,0,16.083,6.6504A21.85218,21.85218,0,0,0,339.71455,508.018Z"/><path class="cls-1" d="M418.03776,202.22111h-.5752A206.60453,206.60453,0,0,0,211.12467,6.0048C97.381,6.0048,4.8112,98.41105,4.529,212.0922L4.528,328.63029a9.74561,9.74561,0,0,0,19.49121,0V227.70451l.31055-.00293v-4.06006l-.01465-.53857q-.07178-1.29858-.12646-2.59277l-.16895-8.46973C24.32633,109.12736,108.14323,25.495,211.12467,25.495A187.10523,187.10523,0,0,1,398.22624,211.997l.03027,9.71436h.291V515.17716H398.234v13.80078l.01465.5459c.19824,3.52734.29883,7.05762.29883,10.49219,0,82.68085-53.90863,152.99463-128.41669,177.671L217.9362,679.26157v-44.642h17.92188a5.51172,5.51172,0,1,0,0-11.02344H217.9362v-16.9502a5.51172,5.51172,0,1,0-11.02344,0v16.9502H188.99723a5.51172,5.51172,0,0,0,0,11.02344h17.91553v41.86987l-55.4679,40.836A187.36016,187.36016,0,0,1,24.3361,540.62834l-.03076-9.71387h-.28613V413.74259a9.75158,9.75158,0,0,0,.31055-2.28955c.00293-.24658.49658-24.8208,17.30957-39.91357,10.93262-9.81445,26.76563-13.80664,47.05762-11.86328,2.44922.23389,5.8667.68555,9.82373,1.2085,29.76318,3.93311,91.69385,12.11572,138.314-15.16943,46.248-27.07471,63.96-65.94092,81.08887-103.52832,13.66992-29.99512,26.58008-58.32666,53.50391-79.45166a9.73564,9.73564,0,0,0-3.68488-17.12122,9.72811,9.72811,0,0,0-2.59833-1.54675C364.027,143.62,337.34245,133.059,299.363,128.19914c-50.63672-6.47949-97.31641.49756-134.98437,20.17725C92.99723,185.66789,63.28288,245.15763,59.527,284.76994,57.81169,302.85685,61.50553,316.496,69.925,323.17326a18.15584,18.15584,0,0,0,11.52979,4.18408c5.833-.00049,12.28223-2.73682,19.28711-8.20166,8.28955-6.4668,17.88428-16.86133,28.99414-28.897,19.97607-21.64014,44.83691-48.57227,77.41211-70.58984,8.494-5.74139,16.59766-10.68494,24.22919-14.949,4.44556,3.77759,7.537,7.87518,18.71124,22.69122l4.25977,5.644a9.74537,9.74537,0,0,0,15.55078-11.75l-4.249-5.63037c-7.86884-10.43335-12.16791-16.13171-16.02545-20.34454,30.152-14.19177,49.3479-16.57782,49.59381-16.60614a9.74515,9.74515,0,1,0-2.08984-19.37793c-1.33282.14355-26.1825,3.05414-64.07367,22.35913-19.49426-12.83228-37.37885-12.99292-38.17584-12.99292a9.74536,9.74536,0,0,0,0,19.49072c.10443,0,7.87183.17364,18.0658,4.66071q-8.08859,4.854-16.71082,10.65717c-34.44873,23.28369-61.25,52.31787-80.81934,73.51758-8.88232,9.62207-16.55322,17.93213-22.957,23.63916-6.689,5.96143-9.71,6.94678-10.55322,7.10938-1.57617-1.50537-4.19336-8.31689-2.97412-21.17725,1.75439-18.49707,10.35205-40.21143,23.58936-59.5752,16.94043-24.78076,41.45166-46.00684,70.88428-61.38281,42.93652-22.43262,90.56641-22.271,122.96191-18.186a297.926,297.926,0,0,1,50.591,10.95032c-22.43994,22.32538-34.78326,49.387-46.76874,75.68835-16.60059,36.42773-32.28125,70.83545-73.2002,94.79-40.84814,23.90674-98.30273,16.31494-125.91406,12.66748-4.144-.54785-7.72314-1.02051-10.521-1.28809-26.04492-2.49219-46.93945,3.19873-62.10742,16.918C12.03007,372.0388,7.03379,392.31706,5.51072,403.3737A9.68741,9.68741,0,0,0,4.528,407.6171V550.4047h.57178a206.99122,206.99122,0,0,0,127.6073,180.71564L89.69059,762.78947a5.51155,5.51155,0,1,0,6.53516,8.877l114.31592-84.16113,115.499,85.03027a5.51155,5.51155,0,1,0,6.53516-8.877l-43.64575-32.13177c75.63239-30.71558,129.10767-104.98035,129.10767-191.5108,0-1.76465-.02344-3.55078-.07129-5.34863h.07129Z"/></svg>