<?xml version="1.0" encoding="UTF-8"?>
<svg width="802px" height="150px" viewBox="0 0 802 150" version="1.1" xmlns="http://www.w3.org/2000/svg" xmlns:xlink="http://www.w3.org/1999/xlink">
    <!-- Generator: Sketch 42 (36781) - http://www.bohemiancoding.com/sketch -->
    <title>Group 3</title>
    <desc>Created with Sketch.</desc>
    <defs>
        <rect id="path-1" x="0" y="0" width="915" height="150"></rect>
        <polygon id="path-3" points="748.113141 1389.19116 1.13686838e-13 1389.19116 1.13686838e-13 0.716844343 748.113141 0.716844343 748.113141 1389.19116"></polygon>
    </defs>
    <g id="Mock-Ups" stroke="none" stroke-width="1" fill="none" fill-rule="evenodd">
        <g id="Home-Mock" transform="translate(-311.000000, -700.000000)">
            <g id="Group-2" transform="translate(0.000000, 700.000000)">
                <g id="Group-3" transform="translate(263.000000, 0.000000)">
                    <mask id="mask-2" fill="white">
                        <use xlink:href="#path-1"></use>
                    </mask>
                    <g id="Rectangle-3"></g>
                    <g id="Page-1" mask="url(#mask-2)">
                        <g transform="translate(351.076514, 373.570668) rotate(-337.000000) translate(-351.076514, -373.570668) translate(-23.423486, -321.929332)" id="Group-21">
                            <g transform="translate(0.000000, 0.092541)">
                                <mask id="mask-4" fill="white">
                                    <use xlink:href="#path-3"></use>
                                </mask>
                                <g id="Clip-20"></g>
                                <path d="M748.113141,355.640714 L747.072863,355.640714 C742.501068,262.673437 704.037928,175.939432 637.666397,109.775586 C567.115662,39.4477832 473.396585,0.716844343 373.770539,0.716844343 C167.987312,0.716844343 0.511635749,167.864759 0.001447343,373.4958 L-0.000361835749,584.294705 C-0.000361835749,594.031705 7.8948942,601.923686 17.6318942,601.923686 C27.3688942,601.923686 35.2623411,594.031705 35.2623411,584.294705 L35.2623411,401.735452 L35.8249957,401.730025 L35.8249957,394.386124 L35.797858,393.412967 C35.7110174,391.846509 35.6350319,390.28186 35.5699014,388.722638 L35.2641502,373.40174 C35.8195681,187.248316 187.457694,35.9711876 373.770539,35.9711876 C463.997901,35.9711876 548.875522,71.0500732 612.768479,134.743041 C676.648771,198.421537 711.98565,283.151345 712.269691,373.32396 L712.325776,390.895058 L712.852247,390.895058 L712.852247,921.728876 L712.284165,921.728876 L712.284165,946.692713 L712.311302,947.680341 C712.66952,954.060129 712.852247,960.445344 712.852247,966.658718 C712.852247,1116.21564 615.32123,1243.4026 480.52294,1288.0376 L386.092856,1218.53101 L386.092856,1137.78066 L418.516957,1137.78066 C424.024097,1137.78066 428.48915,1133.31824 428.48915,1127.81213 C428.48915,1122.30601 424.024097,1117.84179 418.516957,1117.84179 L386.092856,1117.84179 L386.092856,1087.1819 C386.092856,1081.67579 381.629612,1077.21156 376.122471,1077.21156 C370.615331,1077.21156 366.150278,1081.67579 366.150278,1087.1819 L366.150278,1117.84179 L333.737032,1117.84179 C328.231701,1117.84179 323.766648,1122.30601 323.766648,1127.81213 C323.766648,1133.31824 328.231701,1137.78066 333.737032,1137.78066 L366.150278,1137.78066 L366.150278,1213.5169 L265.798752,1287.3828 C217.229539,1271.00011 172.694795,1243.58348 135.3443,1206.35027 C71.4658169,1142.67177 36.1253193,1057.94196 35.8358507,967.76573 L35.7815754,950.194632 L35.2623411,950.194632 L35.2623411,738.248921 C35.6006575,736.921231 35.8069039,735.539275 35.8249957,734.10848 C35.8304232,733.661696 36.7241575,689.211197 67.1418797,661.910335 C86.9198217,644.158353 115.564549,636.937453 152.276404,640.452034 C156.707083,640.875303 162.890856,641.6929 170.049776,642.638925 C223.896363,649.753103 335.940612,664.553054 420.284525,615.198782 C503.955423,566.224367 535.999597,495.921889 566.98902,427.93292 C591.720493,373.676684 615.076991,322.428554 663.787319,284.216753 C671.447382,278.207778 672.784365,267.126808 666.774273,259.468168 C664.243232,256.243002 660.813029,254.155597 657.120496,253.247558 C655.741901,252.106179 654.169725,251.15111 652.41844,250.449279 C650.397587,249.640726 602.121462,230.537539 533.408853,221.746563 C441.797469,210.027072 357.346814,222.647367 289.19867,258.243582 C160.055872,325.698942 106.297935,433.306991 99.5026599,504.958866 C96.3999184,537.675404 103.083025,562.346208 118.3145,574.423851 C124.677382,579.472331 131.640911,581.993857 139.174331,581.992049 C149.727271,581.992049 161.394665,577.041246 174.067962,567.15773 C189.066054,555.459944 206.423314,536.657025 226.52329,514.887604 C262.663445,475.74244 307.641438,427.02669 366.575435,387.201401 C381.9426,376.815026 396.604184,367.873917 410.411836,360.161012 C418.453636,366.993011 424.047616,374.405648 444.26338,401.205461 L451.970481,411.414569 C455.436868,416.001794 460.712433,418.416599 466.051319,418.416599 C469.752899,418.416599 473.485235,417.255322 476.665771,414.85137 C484.434385,408.983484 485.973996,397.927838 480.103211,390.160667 L472.41601,379.976883 C458.179583,361.103419 450.401923,350.796634 443.423921,343.17598 C497.974278,317.504885 532.703273,313.188986 533.148331,313.138338 C542.829247,312.094636 549.830769,303.401338 548.786872,293.722221 C547.741167,284.043104 539.044445,277.028413 529.367148,278.086586 C526.955513,278.347059 481.997421,283.610791 413.445829,318.530498 C378.177699,295.31943 345.820537,295.028206 344.378621,295.028206 C334.641621,295.028206 326.748174,302.920186 326.748174,312.655378 C326.748174,322.392378 334.641621,330.284358 344.378621,330.284358 C344.568585,330.284358 358.620476,330.599097 377.063244,338.715374 C367.308153,344.568788 357.220172,350.970283 346.830058,357.99221 C284.507469,400.107493 236.01786,452.62724 200.614042,490.972895 C184.544916,508.377579 170.666706,523.41087 159.080725,533.733935 C146.979129,544.516446 141.5136,546.298156 139.988462,546.592998 C137.137196,543.87069 132.400766,531.548853 134.607964,508.287137 C137.781264,474.828974 153.336583,435.549956 177.284682,400.523527 C207.93217,355.700406 252.278759,317.305912 305.526508,289.493147 C383.207215,248.91538 469.378399,249.208413 527.986744,256.597535 C567.36352,261.560999 599.968539,270.303136 619.514906,276.404362 C578.916935,316.786774 556.586242,365.737674 534.901426,413.312045 C504.869058,479.204565 476.499327,541.443223 402.469542,584.77224 C328.568208,628.016241 224.621843,614.283508 174.668609,607.686658 C167.171372,606.695413 160.696322,605.83983 155.63424,605.356869 C108.514179,600.849233 70.7131986,611.141548 43.2715754,635.958869 C13.5720971,662.814756 4.5334401,699.494467 1.77806087,719.49484 C0.650942512,721.817394 -0.000361835749,724.414892 -0.000361835749,727.16976 L-0.000361835749,985.450785 L1.03448841,985.450785 C5.60990145,1078.41806 44.0766599,1165.15388 110.448191,1231.31591 C145.824872,1266.58111 187.043392,1293.86388 231.89836,1312.33578 L154.074728,1369.62002 C149.64043,1372.88498 148.692421,1379.12549 151.956179,1383.55896 C155.221747,1387.99606 161.463414,1388.94208 165.897711,1385.67712 L372.715788,1233.44311 L581.674124,1387.249 C583.454356,1388.55861 585.525865,1389.1917 587.577474,1389.1917 C590.638604,1389.1917 593.661742,1387.78442 595.615655,1385.13266 C598.881223,1380.69737 597.931404,1374.45687 593.497107,1371.19191 L514.533691,1313.07198 C651.367307,1257.51157 748.113141,1123.17787 748.113141,966.658718 C748.113141,963.466111 748.071529,960.235518 747.984689,956.983219 L748.113141,956.983219 L748.113141,355.640714 Z" id="Fill-19" fill="#68D871" mask="url(#mask-4)"></path>
                            </g>
                        </g>
                    </g>
                </g>
            </g>
        </g>
    </g>
</svg>